<?xml version="1.0" encoding="utf-8"?>
<!-- Generator: Adobe Illustrator 17.1.0, SVG Export Plug-In . SVG Version: 6.00 Build 0)  -->
<!DOCTYPE svg PUBLIC "-//W3C//DTD SVG 1.1//EN" "http://www.w3.org/Graphics/SVG/1.1/DTD/svg11.dtd">
<svg xmlns:xlink="http://www.w3.org/1999/xlink" version="1.1" id="Слой_1" xmlns="http://www.w3.org/2000/svg" x="0px" y="0px"
	 viewBox="0 0 288 81" enable-background="new 0 0 288 81" xml:space="preserve" width="282" height="81">
<g>
	<g>
		<path fill="#00598e" d="M38.1,40.7c0.8,0,1.4,0.7,1.4,1.4c0,0.5-0.3,1-0.7,1.1v3.3L36.5,49v4.6c0,0.4-0.4,0.8-0.8,0.8
			c-0.4,0-0.8-0.4-0.8-0.8v-4.9l0,0l0,0c0-0.1,0-0.1,0-0.2l0,0l0,0l0,0l0,0l0,0l0,0l0,0l0,0l0,0l0,0l0,0l0,0l0,0l0,0l0,0l0,0l0,0
			l0,0l0,0l0,0l0,0l0,0l0,0l0,0c0,0,0,0,0.1-0.1l0,0l0,0l0,0l0,0l0,0l0,0l2.1-2.1v-2.8c-0.4-0.3-0.7-0.7-0.7-1.1
			C36.7,41.3,37.4,40.7,38.1,40.7L38.1,40.7z M30.5,0.1c-3.4,1.2-6.7,3-9.4,5.4c-2.9,2.6-5.3,5.8-6.8,9.4c-1,2.3-1.6,4.7-1.9,7.1
			c-0.7,6.7,2,12.6,7.1,17c0.8,0.7,1.5,1.3,2.2,2c0.5,0.6,1,1,1.2,1.8c0,0,0,0.1,0.1,0.1c-0.3,0.4-0.6,0.8-0.9,1
			c0-0.3-0.1-0.6-0.2-0.8c-0.2-0.6-0.6-1-1-1.4c-0.7-0.7-1.4-1.3-2.2-1.9c-5.4-4.7-8.2-10.8-7.5-18c0.3-2.6,1-5,1.9-7.4
			C15.7,8.9,19.1,5,24.4,2C17.3,4.3,6.2,11.4,4.3,21.3c-0.1-0.2-0.4-0.7-0.6-1c-2.8,6.2-4.1,16-1,21c-0.5-0.2-0.9-0.4-1-0.7
			c0.8,3.7,2.1,10.2,7.6,10.1C8,51,6.5,51,5.6,50.8c1.3,2.4,3.5,5.7,6.7,5.5c-0.5,0.4-1.5,0.7-2.1,0.8c1,1.1,2.9,3.4,6,3
			c-0.4,0.4-1,0.6-1.9,0.7c1.4,1.1,2.9,2.1,4.6,2.9c0.2,0.5,0.5,1,0.7,1.5c-2.6-1.2-5-2.9-7.2-4.8c0.3,0,0.5,0,0.7-0.1
			c-2.4-0.9-3.5-2.6-4.6-3.8c0.3,0,0.5,0,0.7-0.1c-2.5-1.2-4.2-4.6-5.3-6.7c0.3,0.1,0.8,0.1,1,0C2,46.9,1,42.4,0.4,38.7
			c0.2,0.1,0.3,0.2,0.4,0.2c-1.2-5.4-1-12.6,2.9-20.6c0.1,0.2,0.2,0.3,0.4,0.4C7.8,8.1,19,1,30.5,0.1L30.5,0.1z M45.3,75.5
			c-0.6,0.4-1.1,0.8-1.3,1.5c-0.9,0.5-1.5,0.8-2.8,1c1.2,0.2,2.4,0.1,3.6-0.2C44.8,77,45,76.1,45.3,75.5L45.3,75.5z M48.1,72.1
			c0,0.4,0,0.9,0,1.1c-0.4,0.3-1.1,0.6-1.8,0.7c1.2,0.2,2.4,0.1,3.4-0.4C49,73.2,48.6,72.9,48.1,72.1L48.1,72.1z M45.6,74.9
			c1.9,0.6,4.1,0.6,6.2-1c-1.8-1-3.3-2.5-4.3-4.3l0.9-0.8c1,2.2,2.9,3.8,5.3,4.8c-1.5,1.9-4,2.9-6.1,2.8c-0.8,0.9-1,2.5-0.3,3.5
			c-3.9,0.5-6.2,1.1-8.8-1l0.2-1.2c1,0.7,1.6,1.2,2.8,1.4c0.8,0.1,1.6,0.1,2.4,0c0.7-0.1,1.2-0.2,1.9-0.2c-0.1-1,0.1-2.2,0.8-2.9
			C46.2,75.5,45.8,75.3,45.6,74.9L45.6,74.9z M24.3,75.5c0.6,0.4,1.1,0.8,1.3,1.5c0.9,0.5,1.5,0.8,2.8,1c-1.2,0.2-2.4,0.1-3.6-0.2
			C24.8,77,24.6,76.1,24.3,75.5L24.3,75.5z M21.5,72.1c0,0.4,0,0.9,0,1.1c0.4,0.3,1.1,0.6,1.8,0.7c-1.2,0.2-2.4,0.1-3.4-0.4
			C20.6,73.2,21,72.9,21.5,72.1L21.5,72.1z M24,74.9c-1.9,0.6-4.1,0.6-6.2-1c1.8-1,3.3-2.5,4.3-4.3l-0.9-0.8c-1,2.2-2.9,3.8-5.3,4.8
			c1.5,1.9,4,2.9,6.1,2.8c0.8,0.9,1,2.5,0.3,3.5c3.9,0.5,6.2,1.1,8.8-1l-0.2-1.2c-1,0.7-1.6,1.2-2.8,1.4c-0.8,0.1-1.6,0.1-2.4,0
			c-0.7-0.1-1.2-0.2-1.9-0.2c0.1-1-0.1-2.2-0.8-2.9C23.5,75.5,23.8,75.3,24,74.9L24,74.9z M46.6,42.9c0.3,0.4,0.6,0.8,0.9,1
			c0-0.3,0.1-0.6,0.2-0.8c0.2-0.6,0.6-1,1-1.4c0.7-0.7,1.4-1.3,2.2-1.9c5.4-4.7,8.2-10.8,7.5-18c-0.3-2.6-1-5-1.9-7.4
			c-2.6-5.6-6-9.5-11.3-12.4c7.1,2.3,18.3,9.3,20.2,19.2c0.1-0.2,0.4-0.7,0.6-1c2.8,6.2,4,16.1,1,21c0.5-0.2,0.9-0.4,1-0.7
			c-0.8,3.7-2.1,10.2-7.6,10.1c1.3,0.3,2.8,0.3,3.7,0.1c-1.3,2.4-3.5,5.7-6.7,5.5c0.5,0.4,1.5,0.7,2.1,0.8c-1,1.1-2.9,3.4-6,3
			c0.4,0.4,1,0.6,1.9,0.7c-1.4,1.1-2.9,2.1-4.6,2.9c-0.2,0.5-0.5,1-0.7,1.5c2.6-1.2,5-2.9,7.2-4.8c-0.3,0-0.5,0-0.7-0.1
			c2.4-0.9,3.5-2.6,4.6-3.8c-0.3,0-0.5,0-0.7-0.1c2.5-1.2,4.2-4.6,5.3-6.7c-0.3,0.1-0.8,0.1-1,0c2.9-2.8,3.9-7.3,4.5-11
			c-0.2,0.1-0.3,0.2-0.4,0.2c1.2-5.4,1-12.6-2.9-20.6c-0.1,0.2-0.2,0.3-0.4,0.4C61.9,8.1,50.7,1,39.1,0.1c3.4,1.2,6.7,3,9.4,5.4
			c2.9,2.6,5.3,5.8,6.8,9.4c1,2.3,1.6,4.7,1.9,7.1c0.7,6.7-2,12.6-7.1,17c-0.8,0.7-1.5,1.3-2.2,2C47.4,41.6,47,42.1,46.6,42.9
			C46.7,42.8,46.7,42.8,46.6,42.9L46.6,42.9z M33.6,35c-1.1-0.4-1.5-1.5-1-2.8c0,0.9,0.3,1.5,1,1.8c0.7-0.5,0.9-1.1,0.7-2
			C34.8,33.3,34.6,34.6,33.6,35L33.6,35z M41.8,29.7c-0.6-0.3-1.1-0.4-1.7-0.4c-0.3,0-0.6-0.2-0.5-0.8c-0.6,1.3-0.8,2.1-2.5,1.7
			c-1-0.2-1.4,0.6-1.2,1.4c0.1,0.5,0.3,1.2-0.2,1.7c-0.2-0.8-0.7-1.1-1.1-1.4c0.9,1.2,0.5,2,0.3,2.4c2-0.4,2,1.2,1.7,2
			c0.5,0,1,0.1,1.3,0.1c-0.5-1.6-0.9-3.2-1-4.9c0-0.3,0-0.4,0.2-0.3c1.1,0.2,2.2,0,2.9-1c1.1-0.1,2,0.3,2.9,0.9
			c0.2-1.8,0.3-3.5-1.9-4.2c-0.3-1-1.1-1.4-2.2-1.3c-1.4-2.2-6.5,0.1-8.5-1.3c-0.7-0.5-0.9-1.3-1-2.1c-0.7,0.7-1.2,1.1-1.5,2.1
			c-0.5,1.3-0.2,2.9,0.7,4.1c0.6,0.8,1.4,1.3,2.3,1.5c-0.1,0.1-0.2,0.2-0.2,0.3c-1.1,1.8-1,4.5-1,6.6c0.3-0.1,0.7-0.1,1-0.2
			c-0.3-1,0-2.1,1.4-2.2c-0.2-0.4-0.5-1.1,0.3-2.4c-0.5,0.2-1,0.7-1.1,1.4c-0.4-0.6-0.4-1.1-0.2-1.6c0.1-0.3,0.2-0.5,0.3-0.7V31
			c1-1.9,4.4-0.7,5.3-3.6c-0.3,0.4-0.7,0.7-1,0.9c-0.6,0.3-1-0.9-1.8-0.9c0.3,0.2,0.4,0.6,0.4,1c-0.1,0.4-0.3,0.5-0.6,0.2
			s-0.5-0.9-1-1c0.3,0.3,0.3,0.7,0.2,1c-0.1,0.4-0.4,0.6-0.7,0.2c-0.2-0.2-0.3-0.6-0.6-0.8c0.1,0.5-0.4,1-1,0.7
			c-0.9-0.4-1.4-1-1.8-1.8c-0.3-0.9-0.3-1.8,0.1-2.6c0,0,0,0,0-0.1c1.8,3.3,8.3,0.1,9.1,2.2l0.1,0.4h0.4c0.7-0.1,1.4-0.1,1.5,0.8V28
			l0.3,0.1C41.3,28.1,41.8,28.8,41.8,29.7L41.8,29.7z M31.5,36.5c0.2-0.4,0.5-0.6,0.7-0.8c-0.1,0.3-0.2,0.5-0.3,0.8
			C31.7,36.5,31.7,36.5,31.5,36.5L31.5,36.5z M35.5,36.4c-0.1-0.3-0.4-0.7-0.7-1c0.5,0.1,1,0.4,1.3,1C35.9,36.4,35.6,36.4,35.5,36.4
			L35.5,36.4z M32.5,36.4c0-0.2,0.1-0.4,0.1-0.6c0,0.2,0,0.4,0.1,0.5L32.5,36.4L32.5,36.4z M34.5,36.4c0-0.2-0.1-0.5-0.1-0.8
			c0.2,0.3,0.3,0.5,0.4,0.8H34.5L34.5,36.4z M10.4,25.5c-0.2,6.2,2.4,11.4,7.8,16.4c1.1,1.2,1.2,2.6,1.6,3.8
			c0.2-0.1,0.4-0.2,0.6-0.4c-0.1-0.6-0.1-1-0.2-1.4c0.3,0.2,0.5,0.6,0.7,1.1c0.2-0.1,0.3-0.3,0.5-0.4c0-0.2-0.1-0.4-0.1-0.6
			s-0.1-0.5-0.2-0.7c-0.4-1-2.1-2.3-2.9-2.9C13.6,36.6,10.7,31.4,10.4,25.5L10.4,25.5z M10.6,34.8c-6.5-5.8-4.9-16,0.1-20.2
			c-0.6,2.4-0.7,4.8-0.4,7.2c0.3-2.7,1-5.2,2-7.7c1.2-2.9,3-5.7,5.3-8.2C12.7,9,7.6,13.8,5.7,19.2C4.2,24.1,4.9,31.3,10.6,34.8
			L10.6,34.8z M3.4,24.3c-2.8,9-1.9,20.1,6.7,17.7c-5.3,0.2-7.2-3.1-6.7-10.5c1.3,3.2,4.2,4.9,6.8,5.8C6.1,34.4,3.6,31.1,3.4,24.3
			L3.4,24.3z M3.3,43.2c1.3,6.7,5.7,7,8.3,4.6c-3,1.6-5.1,0.2-6.1-2.1c2.5,0.2,3.7-0.5,4.9-1.5C8.3,44.8,6,44.9,3.3,43.2L3.3,43.2z
			 M7.5,52.1c3.1,4.8,6.4,2.5,7.2,0.8c-1.4,1.2-3.5,1.4-4.6,0.1c1.3-0.6,2.3-1.6,2.8-2.7C11.3,51.6,9.5,52.1,7.5,52.1L7.5,52.1z
			 M15.9,54.1C15,55.9,13.7,57,12,57.5c1.6,1.8,4.2,2.1,5.2,0.7c0-0.3-0.1-0.5-0.1-0.8c-0.7,0.8-1.7,1-2.8,0.3
			C15.2,56.6,15.7,55.5,15.9,54.1L15.9,54.1z M18.1,61.5c-0.1-0.4-0.2-0.8-0.3-1c-0.4,0.5-0.8,0.7-1.3,0.8
			C17.2,61.7,17.8,61.7,18.1,61.5L18.1,61.5z M11.1,36.8C10,42.9,13,42.2,14.8,42c-1.7-0.3-3.1-1-3-2.8c0.9,0.6,2.1,0.8,3,0.8
			C12.6,39.1,11.6,37.4,11.1,36.8L11.1,36.8z M11.2,42.9c-0.1,5.4,3.2,4.1,4.4,2.9c-1.6,0.6-2.9,0.3-3-1.2c1.3,0.1,2.2-0.5,2.8-1
			C12.8,44.3,11.8,43.4,11.2,42.9L11.2,42.9z M12.5,48.3c1.5,3.8,3.2,2.8,4.2,1.4c0-0.2,0-0.3,0-0.5c-1,0.9-2,1-2.4,0.1
			c1.2-0.6,1.7-1.5,1.9-2.3C14.4,48.7,13.1,48.4,12.5,48.3L12.5,48.3z M14.8,52.1c0.8,1.1,1.4,1.7,1.9,2c-0.1-0.8-0.1-1.6-0.1-2.4
			C15.9,52.2,15.2,52.1,14.8,52.1L14.8,52.1z M15.6,42c0.1,4,2,3.2,3,2.8c-1,0.1-2.1-0.1-2.1-1.3c0.7,0.2,1.2,0.1,1.8,0
			C16.8,43.2,15.9,42.3,15.6,42L15.6,42z M16.3,45.9c0.2,0.7,0.4,1.1,0.6,1.5v-0.3l0.5-0.2c0-0.1,0-0.1-0.1-0.2
			c0.9-0.2,1.2-0.7,1.5-1.1C17.4,46.4,16.6,46.1,16.3,45.9L16.3,45.9z M8.8,19.4c-1.6,3-1.9,9.1,1.7,13.4c-0.9-1.1-2.1-5.1-1.6-8.4
			C8.5,23.1,8.4,21.3,8.8,19.4L8.8,19.4z M4.8,36.4c0.6,2.7,2,4.3,4.6,4.4c-1-0.5-1.9-1-2.4-1.7c0.7,0.1,1.4,0.1,2.2-0.2
			C7.4,38.6,6,37.6,4.8,36.4L4.8,36.4z M8.4,46.8c0.7,0.6,1.5,0.7,2.4,0.3c-0.3,0-0.6-0.1-0.8-0.3c0.2-0.2,0.3-0.5,0.3-0.7
			C9.8,46.6,9,46.8,8.4,46.8L8.4,46.8z M12,52.8c0.7,0.1,1.4,0.2,2-0.5c-0.3,0.1-0.5,0.1-0.7,0c0.1-0.3,0.1-0.6,0-0.9
			C13.1,52,12.6,52.5,12,52.8L12,52.8z M15.7,57c0.5-0.1,1-0.3,1.2-0.7c0-0.1,0-0.2,0-0.4c-0.1,0-0.2,0.1-0.3,0
			c0-0.2-0.2-0.6-0.4-0.8C16.3,55.9,16.1,56.5,15.7,57L15.7,57z M59.3,25.5c0.2,6.2-2.4,11.4-7.8,16.4c-1.1,1.2-1.2,2.6-1.6,3.8
			c-0.2-0.1-0.4-0.2-0.6-0.4c0.1-0.6,0.1-1,0.2-1.4c-0.3,0.2-0.5,0.6-0.7,1.1c-0.2-0.1-0.3-0.3-0.5-0.4c0-0.2,0.1-0.4,0.1-0.6
			s0.1-0.5,0.2-0.7c0.4-1,2.1-2.3,2.9-2.9C56.1,36.6,58.8,31.4,59.3,25.5L59.3,25.5z M58.9,34.8c6.6-5.9,4.9-16.1-0.1-20.3
			c0.6,2.4,0.7,4.8,0.4,7.2c-0.3-2.7-1-5.2-2-7.7c-1.2-2.9-3-5.7-5.3-8.2c4.9,3.1,10,7.9,11.9,13.3C65.5,24.1,64.7,31.3,58.9,34.8
			L58.9,34.8z M66.2,24.3c2.8,9,1.9,20.1-6.7,17.7c5.3,0.2,7.2-3.1,6.7-10.5c-1.3,3.2-4.2,4.9-6.8,5.8C63.5,34.4,66,31.1,66.2,24.3
			L66.2,24.3z M66.3,43.2c-1.3,6.7-5.7,7-8.3,4.6c3,1.6,5.1,0.2,6.1-2.1c-2.5,0.2-3.7-0.5-4.9-1.5C61.4,44.8,63.7,44.9,66.3,43.2
			L66.3,43.2z M62.1,52.1c-3.1,4.8-6.4,2.5-7.2,0.8c1.4,1.2,3.5,1.4,4.6,0.1c-1.3-0.6-2.3-1.6-2.8-2.7
			C58.4,51.6,60.2,52.1,62.1,52.1L62.1,52.1z M53.8,54.1c0.9,1.7,2.2,2.9,3.9,3.3c-1.6,1.8-4.2,2.1-5.2,0.7c0-0.3,0.1-0.5,0.1-0.8
			c0.7,0.8,1.7,1,2.8,0.3C54.5,56.6,54,55.5,53.8,54.1L53.8,54.1z M51.6,61.5c0.1-0.4,0.2-0.8,0.3-1c0.4,0.5,0.8,0.7,1.3,0.8
			C52.4,61.7,51.9,61.7,51.6,61.5L51.6,61.5z M58.5,36.8c1.1,6.1-1.9,5.4-3.7,5.2c1.7-0.3,3.1-1,3-2.8c-0.8,0.7-2.1,0.8-3,0.8
			C57,39.1,58,37.4,58.5,36.8L58.5,36.8z M58.4,42.9c0.1,5.4-3.2,4.1-4.4,2.9c1.6,0.6,2.9,0.3,3-1.2c-1.3,0.1-2.2-0.5-2.8-1
			C56.7,44.3,57.9,43.4,58.4,42.9L58.4,42.9z M57.1,48.3c-1.5,3.8-3.2,2.8-4.2,1.4c0-0.2,0-0.3,0-0.5c1,0.9,2,1,2.4,0.1
			c-1.2-0.6-1.7-1.5-1.9-2.3C55.1,48.7,56.5,48.4,57.1,48.3L57.1,48.3z M54.8,52.1c-0.8,1.1-1.4,1.7-1.9,2c0.1-0.8,0.1-1.6,0.1-2.4
			C53.7,52.2,54.4,52.1,54.8,52.1L54.8,52.1z M54.1,42c-0.1,4-2,3.2-3,2.8c1,0.1,2.1-0.1,2.1-1.3c-0.7,0.2-1.2,0.1-1.8,0
			C52.9,43.2,53.7,42.3,54.1,42L54.1,42z M53.4,45.9c-0.2,0.7-0.4,1.1-0.6,1.5v-0.3l-0.6-0.2c0-0.1,0-0.1,0.1-0.2
			c-0.9-0.2-1.2-0.7-1.5-1.1C52.2,46.4,53,46.1,53.4,45.9L53.4,45.9z M60.7,19.4c1.6,3,1.9,9.1-1.7,13.4c0.9-1.1,2.1-5.1,1.6-8.4
			C61.1,23.1,61.3,21.3,60.7,19.4L60.7,19.4z M64.7,36.4c-0.6,2.7-2,4.3-4.6,4.4c1-0.5,1.9-1,2.4-1.7c-0.7,0.1-1.4,0.1-2.2-0.2
			C62.3,38.6,63.7,37.6,64.7,36.4L64.7,36.4z M61.3,46.8c-0.7,0.6-1.5,0.7-2.4,0.3c0.3,0,0.6-0.1,0.8-0.3c-0.2-0.2-0.3-0.5-0.3-0.7
			C59.9,46.6,60.6,46.8,61.3,46.8L61.3,46.8z M57.7,52.8c-0.7,0.1-1.4,0.2-2-0.5c0.3,0.1,0.5,0.1,0.7,0c-0.1-0.3-0.1-0.6,0-0.9
			C56.5,52,57,52.5,57.7,52.8L57.7,52.8z M54,57c-0.5-0.1-1-0.3-1.2-0.7c0-0.1,0-0.2,0-0.4c0.1,0,0.2,0.1,0.3,0
			c0-0.2,0.2-0.6,0.4-0.8C53.3,55.9,53.5,56.5,54,57L54,57z M34.9,26.2c1.3,0.7,2.3,0.1,3,0.5c0.6,0.3,0.9,1.4,0.1,1.6
			c0-0.6-0.5-0.5-0.8-0.5s-0.6-0.3-0.6-0.6c0-0.1,0-0.2,0.1-0.3C36.1,27,35.4,26.9,34.9,26.2L34.9,26.2z M29.5,25.9
			c-0.1,1,0.3,1.7,1.1,2.2c-0.2-0.4-0.3-0.8-0.4-1.2c1.4,0.2,2.9-0.1,4.2-0.7C32.5,26.7,30.9,26.5,29.5,25.9L29.5,25.9z M45.8,60.2
			c0.8,0.4,1.5,0.4,2.3,0.2s1.4-0.6,1.9-1.2c0.7-0.8,0.9-1.7,0.8-2.6c-0.1-0.7-0.4-1.4-0.9-2c0.2-0.4,0.3-0.8,0.4-1.2
			c0.1-0.8,0.1-1.5-0.2-2.2s-0.7-1.2-1.2-1.8c-0.6-0.5-1.3-0.8-2-1c-0.8-0.1-1.5,0-2.2,0.2c-0.5,0.2-1,0.5-1.3,0.8
			c-0.7-0.4-1.3-0.5-2-0.4c-0.9,0.1-1.8,0.5-2.4,1.2c-0.5,0.6-0.8,1.3-0.9,2.1c0,0.8,0.2,1.5,0.7,2.2c0.2,0.4,0.7,0.4,1,0.2
			c0.4-0.2,0.4-0.7,0.2-1c-0.3-0.4-0.4-0.9-0.4-1.2c0-0.5,0.2-0.9,0.5-1.2c0.4-0.5,0.9-0.7,1.4-0.8c0.3,0,0.7,0,1,0.1
			c-0.2,0.4-0.4,0.9-0.5,1.2c-0.1,0.4,0.2,0.8,0.6,0.9c0.4,0.1,0.8-0.2,0.9-0.6c0.1-0.5,0.3-1,0.6-1.2c0.3-0.4,0.8-0.7,1.1-0.9
			c0.5-0.2,1-0.2,1.4-0.1c0.5,0.1,0.9,0.3,1.2,0.6c0.4,0.3,0.7,0.8,0.9,1.1c0.2,0.5,0.2,1,0.1,1.4c-0.1,0.5-0.3,1-0.6,1.3
			s-0.7,0.7-1.1,0.8c-0.4,0.1-0.6,0.6-0.5,1s0.6,0.6,1,0.5c0.6-0.2,1-0.5,1.3-0.9c0.2,0.3,0.3,0.6,0.3,0.9c0.1,0.6-0.1,1-0.5,1.5
			c-0.3,0.4-0.7,0.6-1.1,0.7c-0.5,0.1-0.9,0.1-1.3-0.1c-0.4-0.2-0.9,0-1,0.4C45.2,59.7,45.4,60.1,45.8,60.2L45.8,60.2z M45.1,61.7
			c0,0.3,0,0.5,0,0.8v0.3l-2.2,1L42.8,64c-0.1,0.3-0.2,0.6-0.3,0.9s-0.3,0.6-0.4,0.9L41.9,66l0.9,2.2c-0.2,0.3-0.5,0.6-0.7,0.8
			c-0.3,0.3-0.5,0.5-0.8,0.7l-2.2-0.9L38.9,69c-0.3,0.1-0.6,0.3-0.9,0.4c-0.3,0.1-0.6,0.2-0.9,0.3l-0.4,0.1l-1,2.2h-0.3
			c-0.2,0-0.5,0-0.8,0s-0.5,0-0.8,0h-0.3l-1-2.2l-0.4-0.1c-0.3-0.1-0.6-0.2-0.9-0.3c-0.3-0.1-0.6-0.3-0.9-0.4L30,68.8l-2.2,0.9
			c-0.3-0.2-0.6-0.5-0.8-0.7c-0.3-0.3-0.5-0.5-0.7-0.8l0.9-2.2l-0.1-0.2c-0.1-0.3-0.3-0.6-0.4-0.9s-0.2-0.6-0.3-0.9l-0.1-0.4l-2.2-1
			v-0.3c0-0.2,0-0.5,0-0.8c0-0.4-0.4-0.8-0.8-0.8s-0.8,0.4-0.8,0.8c0,0.3,0,0.6,0,0.9c0,0.3,0.1,0.6,0.1,0.9l0.1,0.4l2.3,1
			c0.1,0.2,0.2,0.5,0.3,0.7c0.1,0.2,0.2,0.5,0.3,0.7l-1,2.3l0.3,0.4c0.4,0.5,0.7,0.9,1.1,1.2c0.4,0.4,0.9,0.8,1.2,1.1l0.3,0.3l2.4-1
			c0.2,0.1,0.5,0.2,0.7,0.3c0.2,0.1,0.5,0.2,0.7,0.3l1,2.3l0.4,0.1c0.3,0,0.6,0.1,0.9,0.1s0.6,0,0.9,0s0.6,0,0.9,0s0.6-0.1,0.9-0.1
			l0.4-0.1l1-2.3c0.2-0.1,0.5-0.2,0.7-0.3c0.2-0.1,0.5-0.2,0.7-0.3l2.3,1l0.4-0.3c0.5-0.4,0.9-0.7,1.2-1.1c0.4-0.4,0.8-0.9,1.1-1.2
			l0.3-0.3l-1-2.4c0.1-0.2,0.2-0.5,0.3-0.7s0.2-0.5,0.3-0.7l2.3-1l0.1-0.4c0-0.3,0.1-0.6,0.1-0.9c0-0.3,0-0.6,0-0.9
			c0-0.4-0.4-0.8-0.8-0.8C45.4,61.1,45.1,61.4,45.1,61.7L45.1,61.7z M24.5,54c1.2-4.2-1.8-3.9-2.8-5.8C22.6,50.2,20.4,52.3,24.5,54
			L24.5,54z M43.4,55.1c-0.3,0.4-0.6,0.8-0.8,1c-0.1,0.2-0.3,0.4-0.4,0.5c-0.3-0.2-0.5-0.3-0.8-0.5c-0.5-0.2-1-0.4-1.6-0.5
			c-0.4-0.1-0.8,0.2-0.9,0.6c-0.1,0.4,0.2,0.8,0.6,0.9c0.4,0.1,0.9,0.2,1.2,0.4c0.2,0.1,0.3,0.2,0.5,0.3c-1.3,1.5-2.9,2.9-4.6,4.2
			c-0.7,0.6-1.4,1-2.2,1.5c-0.2-0.1-0.4-0.3-0.6-0.4c-0.4-0.2-0.8-0.2-1,0.2s-0.2,0.8,0.2,1c-0.8,0.5-1.6,0.9-2.5,1.2
			c-0.4,0.2-0.6,0.6-0.4,1s0.6,0.6,1,0.4c1.1-0.5,2.2-1,3.2-1.6c0.4,0.2,0.8,0.5,1.1,0.7c0.9,0.5,1.7,1,2.7,1.3c0.4,0.2,0.9,0,1-0.4
			c0.2-0.4,0-0.9-0.4-1c-0.9-0.4-1.7-0.8-2.6-1.2c-0.1-0.1-0.3-0.2-0.4-0.2c0.6-0.4,1.1-0.8,1.7-1.1c1.7-1.3,3.3-2.9,4.8-4.5
			c0.1,0.1,0.2,0.3,0.4,0.4c0.3,0.4,0.5,0.8,0.6,1.1s0.6,0.6,1,0.5s0.6-0.6,0.5-1c-0.2-0.5-0.5-1-0.8-1.4c-0.2-0.3-0.4-0.5-0.6-0.8
			c0.2-0.2,0.3-0.4,0.5-0.6c0.3-0.4,0.6-0.8,0.9-1.1c0.2-0.4,0.2-0.8-0.2-1C44.2,54.7,43.7,54.7,43.4,55.1L43.4,55.1z M33.1,58.5
			c1.8,2.8-0.4,3-0.6,4.6C31.3,60.4,32.9,60,33.1,58.5L33.1,58.5z M26.7,62.5c2.9,2.7,3.6,0.2,5.4,0.3
			C29.4,60.8,28.5,62.6,26.7,62.5L26.7,62.5z M24.2,59.7c2.6,3.4,3.8,1,5.7,1.4C27.4,58.3,26.1,60.1,24.2,59.7L24.2,59.7z
			 M29.6,54.9c-0.1,1.7-1.9,2.3-0.3,5.2C29.4,58.4,31.8,57.9,29.6,54.9L29.6,54.9z M28.2,52.4c-0.2,1.8-2.2,2.3-0.7,5.5
			C27.9,56.1,30.4,55.9,28.2,52.4L28.2,52.4z M22.3,56.9c2.2,3.7,3.7,1.3,5.6,2C25.6,55.9,24.1,57.6,22.3,56.9L22.3,56.9z
			 M20.7,53.9c1.6,4,3.5,1.9,5.2,2.8C24.1,53.4,22.4,54.8,20.7,53.9L20.7,53.9z M26.2,50.1c-0.1,2-2.1,2.7-0.2,5.9
			C26,54,28.8,53.6,26.2,50.1L26.2,50.1z M31.6,56.5c-0.2,1.7-2.1,2.2-0.6,5.2C31.2,59.9,33.6,59.7,31.6,56.5L31.6,56.5z M31.8,51.6
			v3.7l4.2,4.2c0.3,0.3,0.8,0.3,1,0c0.3-0.3,0.3-0.8,0-1l-3.7-3.7V48l2.4-2.4v-2.2c0.4-0.3,0.7-0.7,0.7-1.1c0-0.8-0.7-1.4-1.4-1.4
			s-1.4,0.7-1.4,1.4c0,0.5,0.3,1,0.7,1.1V45l-2.4,2.4v2.2l-1.7-1.7v-4.5c0.4-0.3,0.7-0.7,0.7-1.1c0-0.8-0.7-1.4-1.4-1.4
			s-1.4,0.7-1.4,1.4c0,0.5,0.3,1,0.7,1.1v5.1L31.8,51.6L31.8,51.6z M38.1,41.7c-0.3,0-0.5,0.2-0.5,0.5s0.2,0.5,0.5,0.5
			s0.5-0.2,0.5-0.5S38.3,41.7,38.1,41.7L38.1,41.7z M34.9,41.7c-0.3,0-0.5,0.2-0.5,0.5s0.2,0.5,0.5,0.5s0.5-0.2,0.5-0.5
			S35.2,41.7,34.9,41.7L34.9,41.7z M29.4,41.7c-0.3,0-0.5,0.2-0.5,0.5s0.2,0.5,0.5,0.5s0.5-0.2,0.5-0.5S29.7,41.7,29.4,41.7z"/>
		<path fill="#6CAF60" d="M34.8,80.9c13.7-6.6,21.4-17.3,19.3-35c-4.8-1.2-7.7-4.1-8.1-8.9c-3.3-1.4-7.1-2.2-11.2-2.2
			s-7.9,0.7-11.2,2.2c-0.5,4.8-3.3,7.7-8.1,8.9C13.4,63.6,21.1,74.4,34.8,80.9L34.8,80.9z M25.8,38.6c2.9-1,6-1.5,9.1-1.5
			c3,0,6.2,0.5,9.1,1.5c0.9,4.6,3.8,7.5,8.1,9C53.3,62,47.7,71.9,35,78.4C22.2,71.9,16.5,62,17.9,47.7C22,46.2,24.9,43.2,25.8,38.6z
			"/>
	</g>
</g>
<g>
	<g>
		<path fill-rule="evenodd" clip-rule="evenodd" fill="#00598e" d="M81.2,26.6l1.3-5.6h1.1l-2,7.7c-0.1,0.6-0.3,1-0.5,1.3
			c-0.2,0.3-0.3,0.6-0.5,0.7c-0.2,0.2-0.4,0.3-0.5,0.3c-0.2,0-0.4,0.1-0.6,0.1H79v-0.9h0.5c0.2,0,0.4-0.1,0.6-0.3
			c0.2-0.2,0.3-0.5,0.4-1l0.2-0.6L78.5,21h1.1L81.2,26.6L81.2,26.6L81.2,26.6z M80.2,19c0,0.1,0,0.2,0.1,0.3c0,0.1,0.1,0.2,0.2,0.3
			c0.1,0.1,0.2,0.2,0.3,0.2c0.1,0.1,0.2,0.1,0.4,0.1c0.2,0,0.3,0,0.4-0.1c0.1-0.1,0.2-0.1,0.3-0.2c0.1-0.1,0.2-0.2,0.2-0.3
			c0-0.1,0.1-0.2,0.1-0.3h0.9c0,0.2-0.1,0.4-0.1,0.6c-0.1,0.2-0.2,0.4-0.3,0.6c-0.2,0.2-0.3,0.3-0.6,0.4c-0.2,0.1-0.5,0.2-0.8,0.2
			c-0.4,0-0.7-0.1-0.9-0.2c-0.2-0.1-0.4-0.3-0.6-0.4c-0.1-0.2-0.3-0.4-0.3-0.6c-0.1-0.2-0.1-0.4-0.1-0.6H80.2L80.2,19z M86.1,20.9
			c0.4,0,0.7,0,1,0.1c0.3,0.1,0.5,0.2,0.7,0.4c0.2,0.2,0.4,0.5,0.5,0.8c0.1,0.3,0.2,0.8,0.2,1.3c0,0.2,0,0.4,0,0.6
			c0,0.2-0.1,0.4-0.1,0.7c-0.1,0.2-0.2,0.4-0.3,0.6c-0.1,0.2-0.3,0.3-0.4,0.4v0c0.2,0.1,0.4,0.3,0.5,0.4c0.1,0.2,0.2,0.4,0.3,0.6
			c0.1,0.2,0.1,0.4,0.1,0.6c0,0.2,0,0.4,0,0.7c0,1-0.2,1.7-0.5,2.2c-0.4,0.5-1,0.8-1.8,0.8c-0.3,0-0.6,0-0.9-0.1
			c-0.3-0.1-0.5-0.2-0.7-0.4c-0.2-0.2-0.4-0.4-0.5-0.7c-0.1-0.3-0.1-0.6-0.1-1l1.1-0.2c0,0.5,0.1,0.9,0.3,1.1
			c0.2,0.2,0.5,0.3,0.9,0.3c0.2,0,0.3,0,0.4-0.1c0.1-0.1,0.3-0.2,0.4-0.3c0.1-0.1,0.2-0.3,0.2-0.6c0.1-0.2,0.1-0.6,0.1-1
			c0-0.2,0-0.5-0.1-0.7c0-0.2-0.1-0.4-0.2-0.6c-0.1-0.2-0.2-0.3-0.3-0.4c-0.1-0.1-0.3-0.1-0.5-0.1h-0.6v-1h0.7c0.2,0,0.4,0,0.5-0.1
			c0.1-0.1,0.3-0.2,0.3-0.4c0.1-0.2,0.1-0.4,0.2-0.6c0-0.2,0.1-0.5,0.1-0.7c0-0.3,0-0.6-0.1-0.8c-0.1-0.2-0.1-0.4-0.3-0.5
			c-0.1-0.1-0.2-0.2-0.4-0.2c-0.1,0-0.3-0.1-0.5-0.1c-0.4,0-0.7,0.1-0.9,0.4c-0.2,0.3-0.3,0.6-0.3,1l-1.1-0.2c0-0.7,0.2-1.3,0.7-1.7
			C85,21.1,85.5,20.9,86.1,20.9L86.1,20.9z M91,29.9h0.8c0.3,0,0.6-0.1,0.8-0.2c0.2-0.1,0.4-0.2,0.5-0.4c0.1-0.2,0.2-0.4,0.2-0.6
			c0-0.2,0.1-0.5,0.1-0.8c0-0.3,0-0.5,0-0.7c0-0.2-0.1-0.4-0.2-0.6c-0.1-0.2-0.3-0.3-0.5-0.4c-0.2-0.1-0.5-0.2-0.8-0.2H91V29.9
			L91,29.9z M91,25h0.8c0.5,0,1,0.1,1.3,0.2c0.3,0.1,0.6,0.3,0.8,0.6c0.2,0.3,0.3,0.6,0.4,0.9c0.1,0.4,0.1,0.7,0.1,1.2
			c0,0.5,0,0.9-0.1,1.3c-0.1,0.4-0.2,0.7-0.4,1c-0.2,0.3-0.5,0.5-0.8,0.6c-0.3,0.1-0.7,0.2-1.3,0.2h-2V21H94V22H91V25L91,25z
			 M95.6,31V21h4.3V22h-3.2v3.4h2.7v1.1h-2.7v3.5h3.2V31H95.6L95.6,31z M100.9,31V21h1.1v4.4h0.5c0.1,0,0.3,0,0.5,0
			c0.2,0,0.3-0.1,0.5-0.2c0.1-0.1,0.3-0.2,0.4-0.4c0.1-0.2,0.2-0.5,0.3-0.8l0.7-2.9h1l-0.7,2.9c-0.1,0.5-0.3,0.9-0.5,1.2
			c-0.2,0.3-0.5,0.5-0.7,0.7c0.4,0.1,0.7,0.4,0.9,0.7c0.2,0.3,0.4,0.8,0.5,1.3l0.7,3.2h-1.1l-0.6-3c-0.1-0.3-0.2-0.6-0.3-0.8
			c-0.1-0.2-0.2-0.4-0.4-0.5c-0.2-0.1-0.3-0.2-0.5-0.2c-0.2,0-0.3-0.1-0.5-0.1H102V31H100.9L100.9,31z M110.6,23.9l-2.5,7H107V21
			h1.1V28l0.1,0l2.5-7.1h1.1v10h-1.1L110.6,23.9L110.6,23.9L110.6,23.9z M115.4,20.9c0.8,0,1.3,0.2,1.7,0.6c0.4,0.4,0.5,1,0.5,1.7
			l-1.1,0.2c0-0.4-0.1-0.8-0.2-1.1c-0.2-0.3-0.5-0.4-0.9-0.4c-0.2,0-0.4,0.1-0.6,0.2c-0.1,0.1-0.3,0.2-0.3,0.4
			c-0.1,0.2-0.1,0.3-0.2,0.5c0,0.2,0,0.4,0,0.5v5.1c0,0.1,0,0.3,0,0.5c0,0.2,0.1,0.3,0.2,0.5c0.1,0.1,0.2,0.3,0.3,0.4
			c0.1,0.1,0.3,0.1,0.6,0.1c0.4,0,0.7-0.1,0.8-0.3c0.2-0.2,0.3-0.6,0.3-1.1l1.2,0.2c0,0.7-0.2,1.3-0.6,1.7c-0.4,0.4-0.9,0.6-1.7,0.6
			c-0.8,0-1.3-0.2-1.7-0.6c-0.4-0.4-0.6-1-0.6-1.8v-5c0-0.4,0-0.7,0.1-1c0.1-0.3,0.2-0.6,0.3-0.9c0.2-0.3,0.4-0.5,0.7-0.6
			C114.5,20.9,114.9,20.9,115.4,20.9L115.4,20.9z M120.9,22v9h-1.1v-9H118V21h4.5V22H120.9L120.9,22z M127.7,28.3
			c0,0.9-0.2,1.6-0.5,2.1c-0.4,0.5-0.9,0.7-1.8,0.7c-0.8,0-1.4-0.2-1.8-0.7c-0.4-0.5-0.5-1-0.5-1.8v-4.9c0-0.4,0-0.7,0.1-1
			c0.1-0.3,0.2-0.6,0.3-0.9c0.2-0.3,0.4-0.5,0.7-0.6s0.7-0.2,1.2-0.2c0.5,0,0.9,0.1,1.2,0.2c0.3,0.1,0.5,0.3,0.7,0.6
			c0.2,0.2,0.3,0.5,0.3,0.9c0.1,0.3,0.1,0.7,0.1,1.1V28.3L127.7,28.3z M126.5,23.5c0-0.2,0-0.4,0-0.5c0-0.2-0.1-0.3-0.2-0.5
			c-0.1-0.1-0.2-0.3-0.4-0.4c-0.2-0.1-0.4-0.2-0.6-0.2c-0.3,0-0.5,0.1-0.7,0.2c-0.2,0.1-0.3,0.3-0.3,0.5c-0.1,0.2-0.1,0.4-0.1,0.6
			c0,0.2,0,0.4,0,0.5v4.9c0,0.1,0,0.3,0,0.5c0,0.2,0.1,0.3,0.2,0.5c0.1,0.1,0.2,0.3,0.4,0.4c0.1,0.1,0.3,0.1,0.6,0.1
			c0.2,0,0.4,0,0.6-0.1c0.2-0.1,0.3-0.2,0.4-0.4c0.1-0.1,0.1-0.3,0.2-0.5c0-0.2,0.1-0.4,0.1-0.6V23.5L126.5,23.5z M132.6,31v-4.6
			h-2.3V31h-1.1V21h1.1v4.4h2.3V21h1.1v10H132.6L132.6,31z M140.1,21c0.5,0,0.9,0.1,1.3,0.2c0.3,0.1,0.6,0.3,0.8,0.6
			c0.2,0.3,0.3,0.6,0.4,0.9c0.1,0.4,0.1,0.8,0.1,1.3c0,0.4,0,0.8-0.1,1.2c-0.1,0.4-0.2,0.7-0.4,1c-0.2,0.3-0.5,0.5-0.8,0.6
			c-0.3,0.2-0.8,0.2-1.3,0.2h-0.8v4h-1.1V21H140.1L140.1,21z M139.2,25.9h0.8c0.3,0,0.6-0.1,0.8-0.2c0.2-0.1,0.4-0.2,0.5-0.4
			c0.1-0.2,0.2-0.4,0.2-0.6c0-0.2,0-0.5,0-0.7c0-0.3,0-0.5-0.1-0.8c0-0.2-0.1-0.5-0.2-0.6c-0.1-0.2-0.3-0.3-0.5-0.4
			c-0.2-0.1-0.5-0.2-0.8-0.2h-0.8V25.9L139.2,25.9z M143.8,31V21h4.3V22h-3.2v3.4h2.7v1.1h-2.7v3.5h3.2V31H143.8L143.8,31z
			 M151.2,20.9c0.8,0,1.3,0.2,1.7,0.6c0.4,0.4,0.5,1,0.5,1.7l-1.1,0.2c0-0.4-0.1-0.8-0.2-1.1c-0.2-0.3-0.5-0.4-0.9-0.4
			c-0.2,0-0.4,0.1-0.6,0.2c-0.1,0.1-0.3,0.2-0.3,0.4c-0.1,0.2-0.1,0.3-0.2,0.5c0,0.2,0,0.4,0,0.5v5.1c0,0.1,0,0.3,0,0.5
			c0,0.2,0.1,0.3,0.2,0.5c0.1,0.1,0.2,0.3,0.3,0.4c0.1,0.1,0.3,0.1,0.6,0.1c0.4,0,0.7-0.1,0.8-0.3c0.2-0.2,0.3-0.6,0.3-1.1l1.2,0.2
			c0,0.7-0.2,1.3-0.6,1.7c-0.4,0.4-0.9,0.6-1.7,0.6c-0.8,0-1.3-0.2-1.7-0.6c-0.4-0.4-0.6-1-0.6-1.8v-5c0-0.4,0-0.7,0.1-1
			c0.1-0.3,0.2-0.6,0.3-0.9c0.2-0.3,0.4-0.5,0.7-0.6C150.4,20.9,150.7,20.9,151.2,20.9L151.2,20.9z M157.9,31v-9h-2.2v9h-1.1V21h4.4
			v10H157.9L157.9,31z M162.5,26.6l1.3-5.6h1.1l-2,7.7c-0.1,0.6-0.3,1-0.5,1.3c-0.2,0.3-0.3,0.6-0.5,0.7c-0.2,0.2-0.4,0.3-0.5,0.3
			c-0.2,0-0.4,0.1-0.6,0.1h-0.5v-0.9h0.5c0.2,0,0.4-0.1,0.6-0.3c0.2-0.2,0.3-0.5,0.4-1l0.2-0.6l-2.2-7.4h1.1L162.5,26.6L162.5,26.6
			L162.5,26.6z M166.9,29.9h0.8c0.3,0,0.6-0.1,0.8-0.2c0.2-0.1,0.4-0.2,0.5-0.4c0.1-0.2,0.2-0.4,0.2-0.6c0-0.2,0.1-0.5,0.1-0.8
			c0-0.3,0-0.5,0-0.7c0-0.2-0.1-0.4-0.2-0.6c-0.1-0.2-0.3-0.3-0.5-0.4c-0.2-0.1-0.5-0.2-0.8-0.2h-0.8V29.9L166.9,29.9z M166.9,25
			h0.8c0.5,0,1,0.1,1.3,0.2c0.3,0.1,0.6,0.3,0.8,0.6c0.2,0.3,0.3,0.6,0.4,0.9c0.1,0.4,0.1,0.7,0.1,1.2c0,0.5,0,0.9-0.1,1.3
			c-0.1,0.4-0.2,0.7-0.4,1c-0.2,0.3-0.5,0.5-0.8,0.6s-0.7,0.2-1.3,0.2h-2V21h4.1V22h-2.9V25L166.9,25z M173,25.9
			c0,0.9,0,1.7-0.1,2.3c-0.1,0.6-0.2,1.1-0.3,1.5c-0.1,0.4-0.3,0.7-0.6,0.9c-0.2,0.2-0.5,0.4-0.9,0.6l-0.5-0.8
			c0.2-0.2,0.4-0.3,0.6-0.5c0.2-0.2,0.3-0.4,0.4-0.6c0.1-0.3,0.2-0.6,0.3-1c0.1-0.4,0.1-0.9,0.1-1.5V21h4.2v10h-1.1v-9h-2V25.9
			L173,25.9z M181.3,23.9l-2.5,7h-1.1V21h1.1V28l0.1,0l2.5-7.1h1.1v10h-1.1L181.3,23.9L181.3,23.9L181.3,23.9z M183.9,31V21h1.1v4.4
			h0.5c0.1,0,0.3,0,0.5,0c0.2,0,0.3-0.1,0.5-0.2c0.1-0.1,0.3-0.2,0.4-0.4c0.1-0.2,0.2-0.5,0.3-0.8l0.7-2.9h1l-0.7,2.9
			c-0.1,0.5-0.3,0.9-0.5,1.2c-0.2,0.3-0.5,0.5-0.7,0.7c0.4,0.1,0.7,0.4,0.9,0.7c0.2,0.3,0.4,0.8,0.5,1.3l0.7,3.2H188l-0.6-3
			c-0.1-0.3-0.2-0.6-0.3-0.8c-0.1-0.2-0.2-0.4-0.4-0.5c-0.2-0.1-0.3-0.2-0.5-0.2c-0.2,0-0.3-0.1-0.5-0.1H185V31H183.9L183.9,31z
			 M193.7,31l-0.5-2.2H191l-0.4,2.2h-1.1l2.1-10h1.1l2.2,10H193.7L193.7,31z M192.1,23l-0.4,2.3l-0.5,2.3h1.8l-0.5-2.4L192.1,23
			L192.1,23L192.1,23z M197.9,20.9c0.8,0,1.3,0.2,1.7,0.6c0.4,0.4,0.5,1,0.5,1.7l-1.1,0.2c0-0.4-0.1-0.8-0.2-1.1
			c-0.2-0.3-0.5-0.4-0.9-0.4c-0.2,0-0.4,0.1-0.6,0.2c-0.1,0.1-0.3,0.2-0.3,0.4c-0.1,0.2-0.1,0.3-0.2,0.5c0,0.2,0,0.4,0,0.5v5.1
			c0,0.1,0,0.3,0,0.5c0,0.2,0.1,0.3,0.2,0.5c0.1,0.1,0.2,0.3,0.3,0.4c0.1,0.1,0.3,0.1,0.6,0.1c0.4,0,0.7-0.1,0.8-0.3
			c0.2-0.2,0.3-0.6,0.3-1.1l1.2,0.2c0,0.7-0.2,1.3-0.6,1.7c-0.4,0.4-0.9,0.6-1.7,0.6c-0.8,0-1.3-0.2-1.7-0.6c-0.4-0.4-0.6-1-0.6-1.8
			v-5c0-0.4,0-0.7,0.1-1c0.1-0.3,0.2-0.6,0.3-0.9c0.2-0.3,0.4-0.5,0.7-0.6C197,20.9,197.4,20.9,197.9,20.9L197.9,20.9z M204.8,23.9
			l-2.5,7h-1.1V21h1.1V28l0.1,0l2.5-7.1h1.1v10h-1.1L204.8,23.9L204.8,23.9z"/>
		<path fill-rule="evenodd" clip-rule="evenodd" fill="#00598e" d="M80.3,46.9H81c0.1,0,0.2,0,0.2-0.1c0.5,0,0.8-0.2,1-0.6
			c0.2-0.3,0.2-0.8,0.2-1.3c0-0.6-0.1-1.1-0.3-1.4c-0.2-0.3-0.6-0.4-1.2-0.4h-0.6V46.9L80.3,46.9z M173.5,50.6h-1.7v-2.1h-0.6
			l-1.3-4h0l-1.3,4h-2l2.4-6.1c-0.4-0.9-0.7-1.8-1.1-2.8c-0.4-0.9-0.7-1.8-1.1-2.8h2c0.2,0.6,0.4,1.2,0.6,1.7
			c0.2,0.6,0.4,1.2,0.6,1.7l0.1,0L171,37h2l-2.3,5.5c0.4,1,0.8,2,1.2,3c0.2,0.5,0.4,1.1,0.6,1.6h0.8V50.6L173.5,50.6z M80.3,41.5
			h0.8c0.6,0,1.1,0.1,1.5,0.2c0.4,0.2,0.7,0.4,0.9,0.7c0.2,0.3,0.4,0.7,0.5,1.1c0.1,0.4,0.2,0.9,0.2,1.5c0,1.2-0.3,2.1-0.8,2.7
			c-0.5,0.6-1.3,0.9-2.3,0.9h-2.6V37h5.1v1.7h-3.3V41.5L80.3,41.5z M89.6,48.6l-0.4-2.4H87c-0.1,0.4-0.2,0.8-0.2,1.2
			c-0.1,0.4-0.1,0.8-0.2,1.2h-1.8c0.4-1.9,0.8-3.9,1.2-5.8c0.4-1.9,0.8-3.9,1.2-5.8h2l2.4,11.6H89.6L89.6,48.6z M88,39.7
			c-0.1,0.8-0.2,1.6-0.4,2.4c-0.1,0.8-0.3,1.6-0.4,2.4h1.6L88,39.7L88,39.7L88,39.7z M96.3,48.6v-5.1h-2.1v5.1h-1.8V37h1.8v4.9h2.1
			V37h1.8v11.6H96.3L96.3,48.6z M100.6,48.6v2.2h-1.5v-3.7l0.7-0.2c0.3-0.3,0.5-0.7,0.6-1.2c0.1-0.4,0.2-1,0.2-1.7l0.2-7.1h5.2v10
			h0.7v3.8h-1.5v-2.2H100.6L100.6,48.6z M102.2,44c0,0.7-0.1,1.2-0.1,1.7c-0.1,0.5-0.2,0.9-0.4,1.2h2.5v-8.3h-1.9L102.2,44L102.2,44
			z M113.7,37v11.6h-1.8v-9.9h-1.8v4.5c0,0.9,0,1.7-0.1,2.4c-0.1,0.6-0.2,1.2-0.4,1.6c-0.2,0.4-0.4,0.8-0.7,1.1
			c-0.3,0.3-0.7,0.5-1.2,0.7l-0.7-1.3c0.3-0.2,0.5-0.4,0.7-0.5c0.2-0.2,0.3-0.4,0.4-0.7c0.1-0.3,0.2-0.6,0.2-1.1
			c0-0.4,0.1-0.9,0.1-1.6V37H113.7L113.7,37z M119.5,41.3l-2.4,7.3h-1.7V37h1.8v7.4h0.1l2.4-7.4h1.8v11.6h-1.8L119.5,41.3
			L119.5,41.3L119.5,41.3z M123,48.6V37h1.8v4.9h0.4c0.4,0,0.7-0.1,1-0.4c0.3-0.2,0.5-0.7,0.6-1.3c0-0.1,0.1-0.3,0.1-0.6
			c0.1-0.3,0.1-0.7,0.2-1c0.1-0.4,0.1-0.7,0.2-1c0.1-0.3,0.1-0.5,0.1-0.6h1.7c-0.1,0.6-0.2,1.2-0.4,1.7c-0.1,0.6-0.2,1.1-0.4,1.7
			c-0.1,0.6-0.3,1-0.6,1.4c-0.3,0.4-0.5,0.6-0.9,0.7v0c0.4,0.2,0.8,0.4,1,0.8c0.2,0.3,0.4,0.8,0.5,1.4c0.1,0.7,0.3,1.3,0.4,1.9
			c0.1,0.6,0.3,1.3,0.4,1.9h-1.8c-0.1-0.6-0.2-1.1-0.3-1.7c-0.1-0.6-0.2-1.1-0.4-1.7c-0.1-0.6-0.3-1.1-0.6-1.3
			c-0.3-0.2-0.6-0.4-1-0.4h-0.5v5.1H123L123,48.6z M137.5,40.2c0-0.5-0.1-0.9-0.3-1.2c-0.2-0.2-0.6-0.3-1.1-0.3h-0.6v3h0.6
			c0.5,0,0.8-0.1,1-0.4C137.4,41,137.5,40.6,137.5,40.2L137.5,40.2z M137.6,44.9c0-0.5-0.1-1-0.3-1.2c-0.2-0.3-0.6-0.4-1.1-0.4h-0.7
			v3.6h0.7c0.3,0,0.5-0.1,0.7-0.2c0.2-0.1,0.3-0.2,0.4-0.4c0.1-0.2,0.2-0.4,0.2-0.6C137.6,45.4,137.6,45.2,137.6,44.9L137.6,44.9z
			 M138,42.5c0.5,0.2,0.9,0.5,1.1,1c0.2,0.5,0.3,1,0.3,1.6c0,1.2-0.3,2.1-0.8,2.7c-0.5,0.6-1.3,0.9-2.4,0.9h-2.4V37h2.5
			c1,0,1.8,0.3,2.2,0.8c0.5,0.5,0.7,1.3,0.7,2.3c0,0.5-0.1,1-0.3,1.4C138.8,41.9,138.4,42.2,138,42.5L138,42.5L138,42.5z
			 M145.1,48.6l-0.5-2.4h-2.1c-0.1,0.4-0.2,0.8-0.2,1.2c-0.1,0.4-0.1,0.8-0.2,1.2h-1.8c0.4-1.9,0.8-3.9,1.2-5.8
			c0.4-1.9,0.8-3.9,1.2-5.8h2l2.4,11.6H145.1L145.1,48.6z M143.5,39.7c-0.1,0.8-0.2,1.6-0.4,2.4c-0.1,0.8-0.3,1.6-0.4,2.4h1.6
			L143.5,39.7L143.5,39.7L143.5,39.7z M154.8,46l-0.8-2.2l-0.7-2h-0.1v6.7h-1.8V37h1.8l1.3,3.3l0.9,2.5h0.1l0.9-2.6l1.3-3.2h1.7
			v11.6h-1.8v-6.7h-0.1l-0.7,2.1l-0.8,2.1H154.8L154.8,46z M160.9,48.6V37h5.2v1.7h-3.4v3.2h2.9v1.7h-2.9v3.4h3.4v1.7H160.9
			L160.9,48.6z M178,48.6v-5.1H176v5.1h-1.8V37h1.8v4.9h2.1V37h1.8v11.6H178L178,48.6z M185.7,48.6l-0.5-2.4h-2.1
			c-0.1,0.4-0.2,0.8-0.2,1.2c-0.1,0.4-0.1,0.8-0.2,1.2h-1.8c0.4-1.9,0.8-3.9,1.2-5.8c0.4-1.9,0.8-3.9,1.2-5.8h2l2.4,11.6H185.7
			L185.7,48.6z M184.2,39.7c-0.1,0.8-0.2,1.6-0.4,2.4c-0.1,0.8-0.3,1.6-0.4,2.4h1.6L184.2,39.7L184.2,39.7L184.2,39.7z M191,38.7
			h1.9V37h-5.5v1.7h1.9v9.9h1.8V38.7L191,38.7z M200.6,46l-0.8-2.2l-0.7-2h-0.1v6.7h-1.8V37h1.8l1.3,3.3l0.9,2.5h0.1l0.9-2.6
			l1.3-3.2h1.7v11.6h-1.8v-6.7h-0.1l-0.7,2.1l-0.8,2.1H200.6L200.6,46z M209.2,43l1.4-6h1.7l-2.3,9c-0.2,0.6-0.3,1.1-0.5,1.5
			c-0.2,0.4-0.4,0.6-0.6,0.8c-0.2,0.2-0.4,0.3-0.7,0.4c-0.2,0.1-0.5,0.1-0.8,0.1h-0.7v-1.5h0.4c0.3,0,0.5-0.1,0.7-0.3
			c0.2-0.2,0.3-0.5,0.4-0.9c0,0,0,0,0-0.1c0-0.1,0-0.1,0-0.2c0-0.1,0-0.1,0.1-0.2c0-0.1,0-0.1,0-0.1L206,37h1.8L209.2,43L209.2,43
			L209.2,43z M217.1,48.6v-5.1H215v5.1h-1.8V37h1.8v4.9h2.1V37h1.8v11.6H217.1L217.1,48.6z M224.3,39.8c0-0.3-0.1-0.6-0.2-0.9
			c-0.1-0.3-0.4-0.4-0.8-0.4c-0.2,0-0.4,0-0.5,0.1c-0.1,0.1-0.2,0.2-0.3,0.4c-0.1,0.1-0.1,0.3-0.2,0.5c0,0.2,0,0.3,0,0.5v5.8
			c0,0.3,0.1,0.6,0.2,0.8c0.2,0.2,0.4,0.4,0.8,0.4s0.6-0.1,0.8-0.4c0.2-0.3,0.2-0.6,0.2-0.9V39.8L224.3,39.8z M226.1,45.6
			c0,1-0.2,1.8-0.7,2.3c-0.5,0.5-1.2,0.8-2.1,0.8c-1,0-1.7-0.2-2.1-0.7c-0.4-0.5-0.7-1.2-0.7-2.1V40c0-0.5,0.1-0.9,0.2-1.3
			c0.1-0.4,0.3-0.7,0.5-1c0.2-0.3,0.5-0.5,0.9-0.6c0.4-0.2,0.8-0.2,1.3-0.2c0.5,0,1,0.1,1.3,0.2c0.4,0.1,0.6,0.3,0.9,0.6
			c0.2,0.3,0.4,0.6,0.5,1c0.1,0.4,0.1,0.8,0.1,1.3V45.6L226.1,45.6z M230.5,36.9c0.5,0,0.9,0.1,1.2,0.2c0.3,0.1,0.6,0.3,0.9,0.6
			c0.2,0.2,0.4,0.5,0.5,0.8c0.1,0.3,0.2,0.7,0.2,1.1l-1.8,0.5c0-0.4-0.1-0.8-0.2-1c-0.2-0.3-0.4-0.4-0.8-0.4c-0.2,0-0.4,0-0.5,0.1
			c-0.1,0.1-0.2,0.2-0.3,0.3c-0.1,0.1-0.1,0.3-0.1,0.5c0,0.2,0,0.3,0,0.5v5.9c0,0.1,0,0.2,0,0.4c0,0.1,0.1,0.3,0.1,0.4
			c0.1,0.1,0.2,0.2,0.3,0.3c0.1,0.1,0.3,0.1,0.5,0.1c0.7,0,1-0.5,1-1.4c0.3,0.1,0.6,0.1,0.9,0.1c0.3,0,0.6,0.1,0.9,0.1
			c0,0.9-0.3,1.6-0.7,2.1c-0.5,0.5-1.1,0.8-2,0.8c-1,0-1.7-0.2-2.1-0.7c-0.5-0.5-0.7-1.2-0.7-2.1V40c0-0.4,0-0.8,0.1-1.2
			c0.1-0.4,0.3-0.7,0.5-1c0.2-0.3,0.5-0.5,0.9-0.7C229.5,37,230,36.9,230.5,36.9L230.5,36.9z M238.7,48.6l-0.5-2.4h-2.1
			c-0.1,0.4-0.2,0.8-0.2,1.2c-0.1,0.4-0.1,0.8-0.2,1.2h-1.8c0.4-1.9,0.8-3.9,1.2-5.8c0.4-1.9,0.8-3.9,1.2-5.8h2l2.4,11.6H238.7
			L238.7,48.6z M237.1,39.7c-0.1,0.8-0.2,1.6-0.4,2.4c-0.1,0.8-0.3,1.6-0.4,2.4h1.6L237.1,39.7L237.1,39.7L237.1,39.7z M243.4,46.9
			h0.7c0.1,0,0.2,0,0.2-0.1c0.5,0,0.8-0.2,1-0.6c0.2-0.3,0.2-0.8,0.2-1.3c0-0.6-0.1-1.1-0.3-1.4c-0.2-0.3-0.6-0.4-1.2-0.4h-0.6V46.9
			L243.4,46.9z M243.4,41.5h0.8c0.6,0,1.1,0.1,1.5,0.2c0.4,0.2,0.7,0.4,0.9,0.7c0.2,0.3,0.4,0.7,0.5,1.1c0.1,0.4,0.1,0.9,0.1,1.5
			c0,1.2-0.3,2.1-0.8,2.7c-0.5,0.6-1.3,0.9-2.3,0.9h-2.6V37h5.1v1.7h-3.3V41.5L243.4,41.5z M252.6,48.6l-0.5-2.4H250
			c-0.1,0.4-0.2,0.8-0.2,1.2c-0.1,0.4-0.1,0.8-0.2,1.2h-1.8c0.4-1.9,0.8-3.9,1.2-5.8c0.4-1.9,0.8-3.9,1.2-5.8h2l2.4,11.6H252.6
			L252.6,48.6z M251.1,39.7c-0.1,0.8-0.2,1.6-0.4,2.4c-0.1,0.8-0.3,1.6-0.4,2.4h1.6L251.1,39.7L251.1,39.7L251.1,39.7z M257.8,38.7
			h1.9V37h-5.5v1.7h1.9v9.9h1.8V38.7L257.8,38.7z M266.5,37v11.6h-1.8v-9.9h-1.8v4.5c0,0.9,0,1.7-0.1,2.4c-0.1,0.6-0.2,1.2-0.4,1.6
			c-0.2,0.4-0.4,0.8-0.7,1.1c-0.3,0.3-0.7,0.5-1.2,0.7l-0.7-1.3c0.3-0.2,0.5-0.4,0.7-0.5c0.2-0.2,0.3-0.4,0.4-0.7
			c0.1-0.3,0.2-0.6,0.2-1.1c0-0.4,0.1-0.9,0.1-1.6V37H266.5L266.5,37z M272.4,48.6l-0.4-2.4h-2.1c-0.1,0.4-0.2,0.8-0.2,1.2
			c-0.1,0.4-0.1,0.8-0.2,1.2h-1.8c0.4-1.9,0.8-3.9,1.2-5.8c0.4-1.9,0.8-3.9,1.2-5.8h2l2.4,11.6H272.4L272.4,48.6z M270.8,39.7
			c-0.1,0.8-0.2,1.6-0.4,2.4c-0.1,0.8-0.3,1.6-0.4,2.4h1.6L270.8,39.7L270.8,39.7L270.8,39.7z M277.8,37c1.1,0,1.8,0.3,2.3,0.8
			c0.5,0.6,0.7,1.5,0.7,2.7c0,0.5-0.1,1-0.2,1.5c-0.1,0.4-0.3,0.8-0.5,1.1c-0.2,0.3-0.6,0.6-1,0.7c-0.4,0.2-0.9,0.3-1.5,0.3H277v4.5
			h-1.8V37H277.8L277.8,37z M277,38.7v3.8h0.6c0.6,0,0.9-0.2,1.2-0.5c0.2-0.3,0.3-0.8,0.3-1.4c0-0.6-0.1-1-0.3-1.3
			c-0.2-0.3-0.6-0.5-1.1-0.5H277L277,38.7z M286.2,41.3l-2.4,7.3H282V37h1.8v7.4h0.1l2.4-7.4h1.8v11.6h-1.8L286.2,41.3L286.2,41.3z"
			/>
		<path fill-rule="evenodd" clip-rule="evenodd" fill="#00598e" d="M81.9,59.3c0.4,0.1,0.7,0.4,0.9,0.8c0.2,0.4,0.2,0.9,0.2,1.5
			c0,1-0.2,1.8-0.6,2.3c-0.4,0.5-1.1,0.7-2,0.7h-1.9v-10h2.1c0.9,0,1.5,0.2,1.8,0.7c0.4,0.5,0.5,1.1,0.5,2c0,0.5-0.1,0.9-0.2,1.3
			C82.6,58.8,82.3,59.1,81.9,59.3L81.9,59.3L81.9,59.3z M82,61.5c0-0.5-0.1-1-0.3-1.3c-0.2-0.3-0.6-0.4-1.2-0.4h-0.8v3.8h0.9
			c0.3,0,0.6-0.1,0.8-0.2c0.2-0.1,0.3-0.3,0.4-0.4c0.1-0.2,0.2-0.4,0.2-0.6C82,62.1,82,61.8,82,61.5L82,61.5z M81.9,57.2
			c0-0.5-0.1-0.9-0.3-1.2c-0.2-0.3-0.6-0.4-1.1-0.4h-0.8v3.2h0.8c0.5,0,0.9-0.1,1.1-0.4C81.8,58.1,81.9,57.7,81.9,57.2L81.9,57.2z
			 M88.1,64.6l-0.5-2.2h-2.2L85,64.6h-1.1l2.1-10h1.1l2.2,10H88.1L88.1,64.6z M86.5,56.6L86.1,59l-0.5,2.3h1.8L87,58.9L86.5,56.6
			L86.5,56.6L86.5,56.6z M91.8,54.5c0.4,0,0.7,0,1,0.1s0.5,0.2,0.7,0.4c0.2,0.2,0.4,0.5,0.5,0.8c0.1,0.3,0.2,0.8,0.2,1.3
			c0,0.2,0,0.4,0,0.6c0,0.2-0.1,0.4-0.1,0.7c-0.1,0.2-0.2,0.4-0.3,0.6c-0.1,0.2-0.3,0.3-0.4,0.4v0c0.2,0.1,0.4,0.3,0.5,0.4
			c0.1,0.2,0.2,0.4,0.3,0.6c0.1,0.2,0.1,0.4,0.1,0.6c0,0.2,0,0.4,0,0.7c0,1-0.2,1.7-0.5,2.2c-0.4,0.5-1,0.8-1.8,0.8
			c-0.3,0-0.6,0-0.9-0.1c-0.3-0.1-0.5-0.2-0.7-0.4c-0.2-0.2-0.4-0.4-0.5-0.7c-0.1-0.3-0.1-0.6-0.1-1l1.1-0.2c0,0.5,0.1,0.9,0.3,1.1
			c0.2,0.2,0.5,0.3,0.9,0.3c0.2,0,0.3,0,0.4-0.1c0.1-0.1,0.3-0.2,0.4-0.3c0.1-0.1,0.2-0.3,0.2-0.6c0.1-0.2,0.1-0.6,0.1-1
			c0-0.2,0-0.5-0.1-0.7c0-0.2-0.1-0.4-0.2-0.6s-0.2-0.3-0.3-0.4s-0.3-0.1-0.5-0.1h-0.6v-1h0.7c0.2,0,0.4,0,0.5-0.1
			c0.1-0.1,0.3-0.2,0.3-0.4c0.1-0.2,0.1-0.4,0.2-0.6c0-0.2,0.1-0.5,0.1-0.7c0-0.3,0-0.6-0.1-0.8c-0.1-0.2-0.1-0.4-0.3-0.5
			c-0.1-0.1-0.2-0.2-0.4-0.2c-0.1,0-0.3-0.1-0.5-0.1c-0.4,0-0.7,0.1-0.9,0.4c-0.2,0.3-0.3,0.6-0.3,1l-1.1-0.2c0-0.7,0.2-1.3,0.7-1.7
			C90.7,54.7,91.2,54.5,91.8,54.5L91.8,54.5z M99.2,57.5l-2.5,7h-1.1v-10h1.1v7.1l0.1,0l2.5-7.1h1.1v10h-1.1L99.2,57.5L99.2,57.5
			L99.2,57.5z M103.9,54.6c0.5,0,0.9,0.1,1.3,0.2c0.3,0.1,0.6,0.3,0.8,0.6c0.2,0.3,0.3,0.6,0.4,0.9c0.1,0.4,0.1,0.8,0.1,1.3
			c0,0.4,0,0.8-0.1,1.2c-0.1,0.4-0.2,0.7-0.4,1c-0.2,0.3-0.5,0.5-0.8,0.6c-0.3,0.2-0.8,0.2-1.3,0.2H103v4h-1.1v-10H103.9L103.9,54.6
			z M103,59.5h0.8c0.3,0,0.6-0.1,0.8-0.2c0.2-0.1,0.4-0.2,0.5-0.4c0.1-0.2,0.2-0.4,0.2-0.6c0-0.2,0-0.5,0-0.7c0-0.3,0-0.5-0.1-0.8
			c0-0.2-0.1-0.5-0.2-0.6c-0.1-0.2-0.3-0.3-0.5-0.4c-0.2-0.1-0.5-0.2-0.8-0.2H103V59.5L103,59.5z M109.1,59.6c0,0.9,0,1.7-0.1,2.3
			c-0.1,0.6-0.2,1.1-0.3,1.5c-0.1,0.4-0.3,0.7-0.6,0.9c-0.2,0.2-0.5,0.4-0.9,0.6l-0.5-0.8c0.2-0.2,0.4-0.3,0.6-0.5
			c0.2-0.2,0.3-0.4,0.4-0.6c0.1-0.3,0.2-0.6,0.3-1s0.1-0.9,0.1-1.5v-5.9h4.2v10h-1.1v-9h-2V59.6L109.1,59.6z M117.3,57.5l-2.5,7
			h-1.1v-10h1.1v7.1l0.1,0l2.5-7.1h1.1v10h-1.1L117.3,57.5L117.3,57.5L117.3,57.5z M121.1,55.6v9H120v-10h4.1v1.1H121.1L121.1,55.6z
			 M128.7,57.5l-2.5,7h-1.1v-10h1.1v7.1l0.1,0l2.5-7.1h1.1v10h-1.1L128.7,57.5L128.7,57.5z"/>
	</g>
</g>
</svg>
