<svg id="Layer_1" xmlns="http://www.w3.org/2000/svg" viewBox="0 0 37 75"><style>.st0{fill:#0468b1}.st1{fill:#fff}</style><path class="st0" d="M0 38.1h17.9V56H0z"/><path class="st1" d="M4.6 41v7c0 3.7 1.9 5.1 4.3 5.1 2.6 0 4.5-1.5 4.5-5.2v-7h-1.6V48c0 2.6-1.2 3.8-2.9 3.8-1.6 0-2.8-1.1-2.8-3.8v-7H4.6z"/><path class="st0" d="M19 38.1h17.9V56H19z"/><path class="st1" d="M24.9 53v-5.1c0-2 0-3.4-.1-4.9.6 1.3 1.4 2.7 2.2 4l3.8 6h1.6V41.1H31v5c0 1.9 0 3.3.2 4.9-.5-1.2-1.2-2.5-2.1-3.9l-3.8-6h-1.7v12h1.3z"/><path class="st0" d="M19 57.1h17.9V75H19z"/><path class="st1" d="M31 60.9c-.7-.6-1.8-1-3.4-1-1.2 0-2.2.1-2.9.2V72h1.5v-4.8c.4.1.8.1 1.2.1 1.5 0 2.8-.5 3.6-1.3.6-.6 1-1.5 1-2.6.1-1-.3-1.9-1-2.5"/><path class="st0" d="M27.5 66.1c-.5 0-1 0-1.3-.1v-4.6c.2 0 .8-.1 1.5-.1 1.7 0 2.8.7 2.8 2.4 0 1.5-1.1 2.4-3 2.4M0 57.1h17.9V75H0z"/><path class="st1" d="M12.6 61.4c-1-1-2.6-1.5-4.8-1.5-1.2 0-2.3.1-3.3.2v11.8c.8.1 1.7.1 2.8.1 2.3 0 4.2-.6 5.3-1.7 1.1-1.1 1.7-2.7 1.7-4.6 0-1.9-.6-3.3-1.7-4.3"/><path class="st0" d="M7.6 70.8c-.6 0-1.2 0-1.6-.1v-9.4c.4-.1 1-.2 1.8-.2 3.3 0 4.8 1.7 4.8 4.6.1 3.3-1.7 5.2-5 5.1M0 0h37v37H0z"/><path class="st1" d="M31.7 19.2c-.5.7-1.2 1.4-1.6 2.2 0-.6.1-1.3-.1-1.9-.4-1.2-.7-2.4-.9-3.8v-.5c.3 1.4 1.6 2.3 1.5 3.8 0 .4-.1.7-.2 1v-.1c.2-.7.3-1.5.6-2.2.5-1 1-2 .7-3.2 1 1.5.7 3.4 0 4.7"/><path class="st1" d="M30.9 11.6c.9 1.2 1.1 3.1.4 4.4-.2.6-.4 1.2-.5 1.8 0-.1 0-.2-.1-.4-.3-1.3-1.6-2.3-2.1-3.5-.2-.4-.3-.8-.4-1.3.5 1 1.9 1.5 2.3 2.7.2.3.1.6.2 1-.2-1.2-.1-2.4 0-3.5 0-.6-.1-1.2-.4-1.7.3 0 .4.3.6.5"/><path class="st1" d="M30.3 11.4c.2 1-.1 2 .1 3.1-.6-1.1-1.7-1.6-2.6-2.5-.5-.5-.7-1.2-.8-1.9.5 1.1 1.7 1.4 2.5 2.4.2.2.3.5.5.8-.4-.9-.6-1.9-.8-2.9-.2-.4-.5-.8-.8-1.1.9.1 1.7 1.1 1.9 2.1"/><path class="st1" d="M27.7 9c.7.7 1 1.5 1.2 2.4l.1.3c-1-.7-2-1.8-2.7-2.8l-.7-.9c.7.2 1.5.4 2.1 1M14 8.2c1.4-.7 2.9-1 4.5-1.1 3.7 0 7.3 2.2 8.9 5.6 1 2 1.3 4.7.7 6.9-.7 2.7-2.9 5.3-5.5 6.4-2.9 1.4-7 1.1-9.6-.8-3.6-2.4-5.1-6.7-4-10.9.6-2.4 2.6-5 5-6.1m-2.8-.1c-.7.6-1.2 1.5-1.8 2.2-.5.6-1.1 1-1.7 1.5.3-.7.3-1.4.8-1.9.6-1.1 1.7-1.4 2.7-1.8"/><path class="st1" d="M7.2 10.3c.3-.5.8-.8 1.3-.9-1 .7-.9 1.9-1.2 2.9-.1.3-.3.7-.4 1 .2-.4.5-.8.8-1.2.7-.6 1.7-1 2.1-2 0 1.3-1.1 2.4-2.2 3.1-.5.4-.9.8-1.1 1.3v-1c0-1.1-.1-2.4.7-3.2"/><path class="st1" d="M5.3 14.2c0-1.2.5-2.1 1.1-3-.7 1.1-.1 2.6-.2 3.9l-.1 1.3c0-.2 0-.3.1-.5.2-1.1 1.1-1.8 1.9-2.6.2-.2.3-.4.4-.6-.1.5-.2 1.1-.5 1.6-.6 1.2-1.8 2.2-2 3.6.1-1.2-.9-2.3-.7-3.7"/><path class="st1" d="M4.7 15.9c.1-.4.2-.7.3-1.1-.3 1.5.7 2.7 1.1 4 .1.5.2 1 .4 1.5-.5-1.4.2-2.7 1-3.9.2-.3.3-.6.4-1 .1.6-.1 1.4-.2 2-.2.8-.5 1.7-.7 2.5-.2.5-.1 1.1 0 1.6h-.1c-.5-1-1.6-1.8-1.9-2.9-.3-.8-.5-1.8-.3-2.7"/><path class="st1" d="M4.6 18.9c.1 1.6 1.9 2.5 2.7 3.9.2.2.4.5.7.7 0-.2-.2-.3-.2-.5-.3-.6-.4-1.2-.3-1.9.1-.8.4-1.6.3-2.5.7 1.5.5 3.5.9 5.1.1.4.3.7.5 1-1.5-1-3.5-1.9-4.1-3.8-.5-.5-.5-1.3-.5-2"/><path class="st1" d="M5.5 22.6c.8 1.9 2.9 2 4.2 3.1.2.2.5.4.8.5-.3-.3-.7-.6-.9-1-.8-1.1-.5-2.7-1.1-3.9.5.7 1 1.3 1.4 2.1.5 1.2.7 2.6 1.8 3.5-1.2-.4-2.7-.3-3.8-1-1.1-.7-2.2-1.9-2.4-3.3"/><path class="st1" d="M7.6 26.1c1.3 1.5 3.4 1 5.2 1.4.2 0 .5.1.7.1-.2-.1-.5-.1-.7-.2-1.4-.5-1.6-1.9-2.3-2.9 1 .6 1.7 1.5 2.6 2.3.6.5 1.4.8 2.2 1-.2.1-.5 0-.7.1-1.5.4-3 .9-4.6.4-.9-.5-1.9-1.3-2.4-2.2"/><path class="st1" d="M25.4 29.5c-1.5.5-3 0-4.2-.9-.5-.3-.9-.7-1.5-.7h-.6c1.1.5 2.2 1.2 3.1 2.2-.2.2-.4.4-.6.5-.9-1-1.9-1.9-3.1-2.5-.2 0-.4.2-.6.2-.9.6-1.8 1.3-2.5 2.3l-.6-.5c1-1 2-1.7 3.1-2.2-1.1-.4-1.9.6-2.7 1.1-1 .7-2.4 1-3.6.5-.7-.2-1.3-.6-1.7-1.2 1 .7 2.4.7 3.4.3 1.5-.6 2.9-1.4 4.7-1 .3 0 .5.3.8 0 1.3-.3 2.7-.1 3.9.5l1.2.5c1.1.4 2.4.3 3.4-.4-.6.7-1.2 1.1-1.9 1.3"/><path class="st1" d="M27 28c-1.7.6-3.3-.1-4.9-.4h-.3c.7-.2 1.5-.4 2.1-1 .9-.9 1.7-1.7 2.7-2.4-.7 1-.8 2.3-2 2.9-.3.2-.7.2-1 .4.5 0 .8-.2 1.3-.2 1.6-.2 3.5 0 4.6-1.4-.5 1-1.6 1.8-2.5 2.1"/><path class="st1" d="M27.9 26.3c-.8.2-1.7.3-2.6.6 1.4-1.2 1.3-3.1 2.2-4.4.3-.4.5-.8.9-1.2-.6 1.1-.3 2.6-1 3.7-.2.5-.6.9-1 1.2.1 0 .2-.1.4-.2 1.1-1 2.4-1.4 3.6-2.2.5-.4.9-.8 1.1-1.4-.2 1.8-2 3.4-3.6 3.9"/><path class="st1" d="M30 23.3c-.7.4-1.3.8-1.9 1.3 1-1.6.5-3.8 1.1-5.6l.2-.6c-.1 1.1.4 2 .3 3.1 0 .7-.2 1.2-.6 1.8.5-.6.8-1.3 1.4-1.9.9-.8 1.7-1.7 1.8-2.8.4 2-.7 3.7-2.3 4.7"/><path class="st0" d="M22.6 23.2c.4-.3.7-.5 1-.8h-.2c-.2 0-.2-.2-.2-.3l-.6-.6v-.1c0 .1-.1.2-.2.3 0 .1 0 .2.1.2.2.1.5.2.5.4-.1.2-.5.4-.2.7-.1.1-.3.1-.2.2m-3.5-8c.1.1.2 0 .3-.1.1 0 .2.1.3.2h.2c0-.4.6-.3.7-.7h-.1s-.1 0-.1-.1c.1-.1.2-.2.3-.2-.5-.3-.9-.5-1.4-.6-.2 0-.4 0-.6-.1.1.3 0 .7.1 1l.3.1c.1-.2.3-.2.4-.4h.2v.4c-.1.3-.5.3-.6.5m5.2 3.3c-.2.7-.5 1.3-.9 1.9-.2.2-.3.5-.5.6l.5.4v-.1s0-.1.1-.1c.2 0 .2.2.3.3 0 .2.1.3.1.5 1.2-1.3 1.9-2.9 2-4.7l.1-.1h-1.5c0 .3 0 .6-.1.9l.2.2v.2c-.2.1-.2.1-.3 0m-1.2-4.3c-.2-.3-.4-.6-.7-.9-.5.5-1 1-1.4 1.5l.1.1c0-.1.1-.2.1-.3.1-.2.3 0 .5 0h.7c.2.1.2.3.4.4v.2c0 .4.2-.1.4 0 .1 0 .2 0 .2.1 0 .2.2.1.2.3 0 .1-.1.1-.1.1 0 .2-.2.2-.1.4.3 0 .3-.3.4-.4-.1-.2-.1-.5-.3-.7-.2 0-.2-.2-.4-.2-.3-.3.1-.4 0-.6m-4.4 10.2c.4-.1.8-.1 1.2-.2-.1 0-.2 0-.2-.1-.2 0-.3-.2-.4-.5 0-.1 0-.2.1-.4-.1-.2-.4 0-.6-.1 0 0-.1-.1-.2-.1l.1.1c0 .5.1.9 0 1.3m.4-3.8c.1 0 0 .2.1.2.2-.1.4.2.5 0 0-.2.2-.2.4-.3.2-.1.5-.3.5-.6-.2 0-.2.1-.3.2-.1.1-.2-.2-.3-.1v.1c-.2.2-.2-.1-.4 0v.1c-.1-.2-.3-.1-.4-.2H19c0 .1-.2 0-.2.1-.1 0-.1.2-.2.2-.2 0-.2.2-.4.1v.1h.3c.1 0 .4.2.6.1m1.4-1.9c0 .1 0 .2.1.2.2 0 .1.2.3.2.1 0 0-.1 0-.2 0-.2-.2-.2-.3-.2v-.1l-.1.1m-.2-6.8c-.5-.2-1-.2-1.6-.3V13h.1c.8.1 1.6.4 2.2.9v.1c.2-.3.5-.6.8-.9l.2-.1h-.1c-.4-.5-1-.9-1.6-1.1m-9.2 5.5l.1.9c0 .3.2.7.2 1 0-.1 0-.2.2-.2 0-.1.1-.2 0-.3 0-.2.1-.5.3-.7.2 0 .3-.3.5-.4.1 0 .2.2.2.2-.2-.2-.2-.5-.1-.7h-1.6l.2.2zm8.9 2.3c.1-.1.4-.1.4-.3-.2 0-.2.1-.4.2-.1 0-.1.1 0 .1m3.1-2.5l.2.2c.2.1 0 .3.2.4.2.1.2.3.3.5v-.1c.1-.3 0-.6.1-.8-.2-.1-.6-.1-.8-.2m-2 3.5c.2 0 .3.2.5.2.2-.1.5 0 .6-.1 0-.2.1-.3.2-.5.1.1.1.2.1.4.1-.2.2-.3.4-.5.3-.5.6-1 .7-1.5-.1 0-.2 0-.4.1-.1 0-.3.1-.5 0h-.1c0 .1-.1.2-.2.1-.1 0-.1-.1-.1-.2v.2c-.1.1-.1.2-.2.3-.1.1-.3.1-.4.2 0 .2-.3.2-.4.2h.2c.2 0 .2-.2.3-.3.1 0 .2-.1.3 0 .1.1.1.3.1.5-.1.1 0 .3-.1.5 0 .2-.2.2-.2.4-.1.1-.2.1-.3.1-.4-.2-.8-.2-1.2-.3 0 0-.1 0 0 .1.3 0 .5 0 .7.1m-3 4.3H18c-1.9-.1-3.6-.8-5-2.2l-1 1c1.5 1.3 3.3 2.2 5.3 2.4.3 0 .7 0 1 .1l-.1-.1-.1-1.2zm-1.9-5.3c.5.4 1.1.7 1.8.8v-.4c0-.1.2-.1.3-.1 0 0 .1-.1 0-.1s-.1-.2-.1-.3c0 0 .1 0 .1-.1-.1-.1 0-.2 0-.2l.1-.1c-.3.1-.6 0-.9-.2-.1-.1-.3-.2-.3-.3l-1 1m-.5-1.6c-.1 0-.1 0 0 0h-.2c0-.3-.3-.1-.4-.2.1.2.2.5.4.8.1.2.3.4.4.6.1-.2.3-.3.4-.5v-.2c0-.1 0-.2-.1-.3-.1 0 0 .2 0 .2h-.1c-.1 0-.2-.1-.2-.2-.1-.1-.2-.1-.2-.2m.9.2c0 .1-.1.2-.2.3.1-.1.2-.2.4-.2l-.2-.1zm1.5 4.8c-1.2 0-2.2-.5-3.2-1.2 0 .1.2.2.1.3-.1.1-.2.1-.4.1-.3 0-.5.2-.7.2-.2.1-.3-.2-.5-.2 1.4 1.2 2.9 1.9 4.8 2l.1.1V23l-.2.1z"/><path class="st0" d="M12.7 22.4c-.2-.1-.3-.3-.5-.5-.2 0-.3-.2-.4-.3v-.2.1c-.2.1-.2-.1-.4-.2s-.1-.4-.3-.3c-.1 0-.1-.1-.2-.1-.2 0-.2-.2-.3-.3v.1c-.2 0-.2-.2-.4-.3h-.1c-.1-.1-.2-.2-.2-.4-.2-.2-.1-.5 0-.7 0 0 .1-.1.1-.2s.2-.1.2-.1.1 0 .1.1c.1 0 .2 0 .2-.1.1-.1.2-.1.3-.1.1.1.1.2.2.3l-.1-.1c-.1-.5-.2-1-.2-1.5v-.4H9c.1 1.6.5 3 1.2 4.3.3.7.9 1.2 1.3 1.8l1-1 .2.1zm1.6-11.5c-.3.2-.6.5-.9.7.4.2.7.6 1 .9v.1c.8-.8 1.9-1.3 2.9-1.5.2 0 .5-.1.8 0V9.7c-1.4 0-2.6.5-3.8 1.2m-1.2 5.2c0 .2 0 .5-.1.7.2-.1.4 0 .6 0-.1 0 0-.2-.1-.3 0-.1 0-.3.1-.4 0-.2.2-.3.2-.5s.3-.1.4-.2c.1 0 0-.1 0-.2.1-.1.2-.1.4-.2l.3-.3c.3 0 .3-.4.6-.4-.4-.3-.7-.7-1.1-1-.6.9-1.1 1.7-1.3 2.8m.2 2c0-.1-.1-.1-.1-.2.1-.2 0-.5.2-.5-.2 0-.3.1-.5 0l.1.1c0 .3.1.6.1 1 .1-.2.1-.4.2-.4m1.4 3.5z"/><path class="st0" d="M13.1 12l-.5.7c-.9 1.2-1.3 2.6-1.4 4.1h1.5v-.1c.1-1.4.6-2.7 1.6-3.7-.5-.4-.9-.7-1.2-1zm4.1 9.2c.1-.1.2-.2.4-.2-.5.1-.8-.2-1.2-.4-.2-.1-.5-.2-.6-.5-.3.4-.6.7-1 1 .2 0 .2.2.4.2.7.6 1.7.9 2.5 1.1l-.2-.1c-.2-.2-.4-.5-.5-.7.2-.1.2-.3.2-.4m-3.4-3.9v.2c0 .2-.2 0-.3.1s0 .2 0 .3c-.1.3.3.4.3.7.1.2 0 .4.2.6 0 .3 0 .7.2 1v.3c0 .2-.2.2-.2.3 0 0 .1 0 .1.1.4-.5.8-.9 1.3-1.3l-.2-.2c-.3-.5-.6-1.1-.7-1.7l-.1-.1c0 .2-.1.3-.1.5-.1 0-.2-.1-.2-.1s-.1-.1 0-.2h.1v-.2c0-.1-.1-.2 0-.3.1 0 .2.1.2.2.1 0 .2 0 .2-.1s.1-.2 0-.2c.1-.2 0-.4 0-.6-.1-.1-.3 0-.4 0-.4.1.1.4 0 .7-.1.1-.3-.1-.4 0m12.6 0c-.1 1.7-.7 3.1-1.6 4.5-.2.2-.3.5-.6.6.4.3.8.7 1.1 1.1v-.1c1.5-1.7 2.4-3.7 2.4-6v-.1h-1.3zm-13.3-6c1.5-1.4 3.1-2.1 5.1-2.2V7.6c-2 .1-3.7.7-5.3 1.9-.3.2-.6.5-.9.7.4.3.8.7 1.1 1.1m5 .3c-1.2.1-2.3.6-3.3 1.4.4.2.7.7 1 1 0 0 0-.1.1-.1.5-.3 1-.6 1.5-.8.2 0 .5-.1.7-.1v-1.4zm0 1.9c-.8.1-1.5.4-2.1 1h.1c.1.1.3.1.4.2 0 .1-.1.1-.1.2h.1c.1 0 .1 0 .1-.1.1-.1.1.1.2.1h.2c.1-.1.2 0 .3-.1.2-.2.1-.4.3-.5.1 0 0 .1 0 .2.2.1.3-.1.5 0v-1m.1 2.2c-.2.2-.4.3-.6.4-.1.1 0 .2-.2.2 0 .1-.2.2-.2.3-.1.2 0 .4-.1.6-.3.2-.2-.2-.4-.3H16.4c-.1.1-.2.2-.1.3 0 .1-.2 0-.2.2.2 0 .3 0 .5-.1h.3s.1 0 .1.1c.1 0 .1-.2.1-.2 0-.1.1-.1.2-.1s0 .1 0 .1c.2.1 0 .2-.1.4 0 .1 0 .3-.2.3v-.1c0 .1 0 .2.1.2.1-.1.1-.3.3-.3.1-.1 0-.3.1-.4.2 0 .5-.1.7.1v.2c0 .1-.1.2-.2.3v.2c-.1.3-.4.2-.6.2.3.2.7.3 1.1.3.2 0 .1-.3.2-.4.1-.3.4-.1.6-.2.1-.2.2-.3.2-.5-.2-.1-.2-.2-.2-.4-.1-.1-.1-.3-.2-.3v-.1c0-.1.1-.1.1-.2-.1-.1-.1-.2-.1-.3-.2 0-.2-.2-.4-.2 0-.1-.2-.1-.2-.2-.2.1-.3-.2-.5-.2v-.2c.1-.1.2 0 .3 0h-.1c-.1-.1-.2 0-.4 0 .4.1.3.2.4.3"/><path class="st0" d="M10.6 16.8v-.2c.1-1.6.6-3 1.5-4.2.2-.2.4-.6.7-.7l-1-1v-.1C10.4 12.2 9.5 14 9.3 16c0 .3 0 .6-.1.9.4-.2 1-.2 1.4-.1M24 22.7c-.1.3-.5.5-.7.7-.3.3-.8.4-1 .9-.2.2-.2.4-.5.5-.1.2-.3.2-.5.4-.4.4-.7-.2-1-.3l-.7.1c-.2 0-.5.1-.8 0v1.5h.1c2.4-.1 4.4-1 6.2-2.6l-1.1-1v-.2zM18.7 9v-.1c.1 0 .1 0 .2.1v.2h.1c1.1.1 2.2.4 3.1 1 .2-.1.5-.2.6 0 .2-.1.3.2.5.2.2.1.5.4.5.7 0 .1.2.2.2.2.2-.3.5-.6.7-.9l.2-.1c-1.5-1.4-3.3-2.2-5.2-2.5-.3 0-.7 0-1-.1.2.3.1.8.1 1.3"/><path class="st0" d="M18.7 11.1c.2-.1.4 0 .6 0 1 .2 1.9.5 2.7 1.1-.1-.1-.2-.2-.2-.4s-.2-.2-.2-.4h.1c.2.2.3.3.4.5.1 0 .2 0 .3.1.1.1 0 .2.2.4 0 .3.4.5.4.7 0 .1.1 0 .1 0l.3.4v.2c.1 0 .2-.1.3-.1.2.1 0 .2 0 .4h.2c0 .1-.1.2-.1.2 0 .1.1.1.2.1s.1.1.1.2c.2.2-.1.5 0 .8.1.2 0 .3-.1.5 0 .2-.2.3-.2.5h-.2c-.1.1.1.3 0 .4h.5c-.1-.2 0-.5.1-.7.1-.2.1-.4.2-.5 0 0 .1-.1.1 0 0 .2 0 .4-.1.5.2.2.1.5.2.8h1.5v-.1c-.1-.9-.2-1.8-.6-2.6-.1 0-.2.1-.3 0 0 0-.1 0 0-.1-.2-.2-.3-.4-.5-.6-.2 0-.4-.2-.6-.3-.2-.1-.1-.4-.4-.3-.1 0-.3-.2-.3-.3 0-.2 0-.5-.3-.7-.2-.1-.2.2-.4.1-.1 0 0-.2-.1-.2 0-.1-.1-.1-.1-.2.2-.3-.3-.3-.2-.6 0-.2-.2-.3-.4-.5-.7-.3-1.5-.6-2.4-.7-.2 0-.4 0-.6-.1v.1c-.2.5-.1.9-.2 1.4"/><path class="st0" d="M24.1 11.6c.1 0 .1.2.2.2.4.2.5.6.8.8.2.4.6.7.6 1.1.4 1 .7 1.9.7 3.1h1.5c-.1-.1 0-.3-.1-.5-.2-2.2-1.1-4.1-2.6-5.7-.3.4-.6.7-1 1h-.1z"/><path class="st1" d="M18.9 8.7c0-.1.2 0 .2 0l.7-.3c.3 0 .6 0 .8.3-.2.2-.4.3-.6.2-.4.1-.8.2-1.1-.2 0 .1 0 0 0 0m4.2.9c.1 0 .2.1.2.2s.1.2 0 .3c-.2.1-.3-.2-.5-.3v-.1c.2-.2.2 0 .3-.1"/></svg>